<?xml version="1.0" encoding="UTF-8"?>
<svg id="Layer_2" data-name="Layer 2" xmlns="http://www.w3.org/2000/svg" viewBox="0 0 502.49 144">
  <defs>
    <style>
      .cls-1 {
        fill: #fff;
      }

      .cls-2 {
        fill: #f60;
      }

      .cls-3 {
        fill: none;
        isolation: isolate;
      }

      .cls-4 {
        fill: #ff7000;
      }
    </style>
  </defs>
  <g id="Layer_2-2" data-name="Layer 2">
    <g id="Layer_1-2" data-name="Layer 1-2">
      <g>
        <rect x="183" width="319.49" height="144"/>
        <rect width="182.81" height="144"/>
        <g>
          <polygon class="cls-2" points="53.01 81 81.48 81 67.18 47.92 53.01 81"/>
          <path class="cls-2" d="m124.39,44h-21.39v22h20.33c9.33,0,15.67-3.23,15.67-10.79v-.24c0-6.5-5.28-10.98-14.61-10.98h0Z"/>
          <path class="cls-4" d="m0,0v144h183V0H0Zm158,91.6c0,14.77-12.11,22.4-30.54,22.4h-32.28l-5.41-12.9-2.98-7.1h-39.1l-8.51,20h-14.89L60.68,31h13.47l30.76,70h22.67c9.92,0,16.42-3.49,16.42-10.94v-.24c0-6.97-6.02-11.83-17.48-11.83h-22.99l-14.53-32.12v-14.88h37.28c9.45,0,16.67,2.89,21.39,7.62,3.66,3.66,5.33,8.44,5.33,14v.24c0,9.92-5.48,15.24-11.62,18.43,9.69,3.31,16.62,8.86,16.62,20.08v.24h0Z"/>
        </g>
        <g>
          <g class="cls-3">
            <path class="cls-1" d="m239.62,112.79V45.12h-25.82v-13.21h67.09v13.21h-25.94v67.67h-15.33Z"/>
          </g>
          <g class="cls-3">
            <path class="cls-1" d="m308.35,114.21c-6.6,0-12.11-1.16-16.51-3.48-4.4-2.32-7.7-5.87-9.9-10.67-2.2-4.79-3.3-10.89-3.3-18.27s1.1-13.58,3.3-18.33c2.2-4.75,5.5-8.29,9.9-10.61,4.4-2.32,9.9-3.48,16.51-3.48,5.97,0,10.98,1.12,15.03,3.36,4.05,2.24,7.09,5.68,9.14,10.32,2.04,4.64,3.07,10.65,3.07,18.04v4.24h-42.21c.16,3.85.75,7.09,1.77,9.73,1.02,2.63,2.61,4.6,4.77,5.9,2.16,1.3,5.01,1.95,8.55,1.95,1.81,0,3.5-.24,5.07-.71,1.57-.47,2.95-1.2,4.13-2.18,1.18-.98,2.1-2.22,2.77-3.71.67-1.49,1-3.22,1-5.19h14.15c0,3.93-.69,7.35-2.06,10.26-1.38,2.91-3.3,5.31-5.78,7.19-2.48,1.89-5.37,3.3-8.67,4.24s-6.88,1.42-10.73,1.42Zm-14.74-39.03h27c0-2.59-.29-4.79-.88-6.6-.59-1.81-1.42-3.3-2.48-4.48-1.06-1.18-2.34-2.02-3.83-2.54-1.49-.51-3.18-.77-5.07-.77-3.07,0-5.64.51-7.72,1.53-2.08,1.02-3.68,2.59-4.78,4.72-1.1,2.12-1.85,4.83-2.24,8.13Z"/>
            <path class="cls-1" d="m370.13,114.21c-6.45,0-11.81-1.16-16.09-3.48-4.28-2.32-7.49-5.87-9.61-10.67-2.12-4.79-3.18-10.89-3.18-18.27s1.08-13.58,3.24-18.33c2.16-4.75,5.38-8.29,9.67-10.61,4.28-2.32,9.61-3.48,15.97-3.48,4.17,0,7.86.51,11.08,1.53,3.22,1.02,5.99,2.58,8.31,4.66,2.32,2.08,4.07,4.66,5.25,7.72,1.18,3.07,1.77,6.64,1.77,10.73h-14.62c0-2.91-.43-5.31-1.3-7.19-.87-1.89-2.18-3.32-3.95-4.3-1.77-.98-4.03-1.47-6.78-1.47-3.22,0-5.86.75-7.9,2.24-2.04,1.49-3.56,3.71-4.54,6.66-.98,2.95-1.47,6.66-1.47,11.14v1.53c0,4.4.49,8.1,1.47,11.08.98,2.99,2.54,5.21,4.66,6.66,2.12,1.46,4.91,2.18,8.37,2.18,2.67,0,4.89-.49,6.66-1.47,1.77-.98,3.12-2.46,4.07-4.42.94-1.96,1.42-4.32,1.42-7.07h13.91c0,3.85-.59,7.31-1.77,10.38-1.18,3.07-2.91,5.66-5.19,7.78-2.28,2.12-5.05,3.73-8.31,4.83-3.26,1.1-6.98,1.65-11.14,1.65Z"/>
            <path class="cls-1" d="m405.26,112.79V27.55h14.38v30.3h.83c1.33-1.65,2.91-3.1,4.71-4.36,1.81-1.26,3.87-2.26,6.19-3.01,2.32-.75,4.89-1.12,7.72-1.12,3.93,0,7.41.71,10.43,2.12,3.02,1.41,5.4,3.7,7.13,6.84,1.73,3.14,2.59,7.35,2.59,12.62v41.85h-14.5v-39.26c0-2.2-.26-4.03-.77-5.48-.51-1.45-1.26-2.63-2.24-3.54-.98-.9-2.18-1.55-3.6-1.95-1.42-.39-2.99-.59-4.72-.59-2.59,0-4.93.63-7.02,1.89-2.08,1.26-3.73,2.99-4.95,5.19-1.22,2.2-1.83,4.76-1.83,7.66v36.08h-14.38Z"/>
          </g>
        </g>
      </g>
    </g>
  </g>
</svg>