<?xml version="1.0" encoding="UTF-8"?>
<svg id="Layer_2" data-name="Layer 2" xmlns="http://www.w3.org/2000/svg" viewBox="0 0 319.55 361.01">
  <defs>
    <style>
      .cls-1 {
        fill: #0077E5;
      }
    </style>
  </defs>
  <g id="Layer_1-2" data-name="Layer 1">
    <g>
      <path class="cls-1" d="m155.73,0H0v361.01h155.73c53.25,0,94.37-17.36,123.37-52.08,26.96-32.36,40.45-75.84,40.45-130.45,0-57.97-15.67-102.64-47.02-133.99C243.53,14.84,204.6,0,155.73,0Zm56.63,269.99c-15.85,16.18-36.58,24.27-62.19,24.27h-70.79V66.74h56.63c37.75,0,65.05,10.79,81.91,32.36,14.83,19.21,22.25,48.21,22.25,86.96s-9.28,65.06-27.81,83.93Z"/>
      <polygon class="cls-1" points="200.76 180.5 118.79 119.85 118.79 241.15 200.76 180.5"/>
    </g>
  </g>
</svg>