<?xml version="1.0" encoding="UTF-8"?>
<svg id="Layer_2" data-name="Layer 2" xmlns="http://www.w3.org/2000/svg" viewBox="0 0 620.22 620.22">
  <defs>
    <style>
      .cls-1 {
        fill: #fff;
      }

      .cls-2 {
        fill: #15181a;
      }

      .cls-3 {
        fill: #3a73ba;
      }
    </style>
  </defs>
  <g id="Layer_1-2" data-name="Layer 1">
    <g>
      <rect class="cls-2" width="620.22" height="620.22" rx="119.72" ry="119.72"/>
      <g>
        <path class="cls-3" d="m306.07,129.61h-155.73v361.01h155.73c53.25,0,94.37-17.36,123.37-52.08,26.96-32.36,40.45-75.84,40.45-130.45,0-57.97-15.67-102.64-47.02-133.99-29-29.66-67.93-44.49-116.8-44.49Zm56.63,269.99c-15.85,16.18-36.58,24.27-62.19,24.27h-70.79v-227.52h56.63c37.75,0,65.05,10.79,81.91,32.36,14.83,19.21,22.25,48.21,22.25,86.96s-9.28,65.06-27.81,83.93Z"/>
        <polygon class="cls-1" points="351.1 310.11 269.12 249.46 269.12 370.76 351.1 310.11"/>
      </g>
    </g>
  </g>
</svg>