<?xml version="1.0" encoding="UTF-8"?>
<svg id="Layer_2" data-name="Layer 2" xmlns="http://www.w3.org/2000/svg" viewBox="0 0 1201.92 342.14">
  <defs>
    <style>
      .cls-1 {
        fill:currentColor;
      }

      .cls-2 {
        fill: #0482c1;
      }
    </style>
  </defs>
  <g id="Layer_1-2" data-name="Layer 1">
    <g>
      <g>
        <path class="cls-1" d="m72.24,3.99H0v167.45h72.24c24.7,0,43.78-8.05,57.22-24.16,12.51-15.01,18.76-35.18,18.76-60.51,0-26.89-7.27-47.61-21.81-62.15-13.45-13.76-31.51-20.64-54.18-20.64Zm26.27,125.24c-7.35,7.51-16.97,11.26-28.85,11.26h-32.83V34.94h26.27c17.51,0,30.17,5.01,37.99,15.01,6.88,8.91,10.32,22.36,10.32,40.34s-4.3,30.18-12.9,38.93Z"/>
        <path class="cls-1" d="m279.09,81.38c0-22.98-17.75-34.48-53.24-34.48-15.64,0-28.3,2.9-37.99,8.68-11.73,6.88-18.06,17.51-19,31.9h33.3c1.09-12.2,8.44-18.29,22.05-18.29,6.88,0,11.88.94,15.01,2.81,4.38,2.5,6.57,7.04,6.57,13.6,0,5.94-3.99,9.93-11.96,11.96-.31.16-9.46,1.49-27.44,3.99-12.66,1.88-22.13,4.92-28.38,9.15-8.6,6.1-12.9,15.32-12.9,27.67s3.99,21.03,11.96,27.44c7.35,5.94,17.12,8.91,29.32,8.91,17.67,0,31.27-5,40.81-15.01.15,3.44.94,7.35,2.35,11.73h33.77c-2.81-4.53-4.22-13.52-4.22-26.97v-63.09Zm-33.3,43.15c0,18.61-8.99,27.91-26.97,27.91-13.6,0-20.4-5.16-20.4-15.48,0-7.04,3.28-12.04,9.85-15.01,3.28-1.41,10-2.89,20.17-4.46,8.91-1.25,14.69-3.05,17.36-5.39v12.43Z"/>
        <path class="cls-1" d="m347.1,13.84h-33.3v36.35h-20.17v22.28h20.17v71.53c0,19.23,12.74,28.85,38.23,28.85,8.29,0,14.77-.39,19.47-1.17v-26.03c-3.13.63-6.57.94-10.32.94-5.63,0-9.38-.94-11.26-2.81-1.88-1.88-2.81-5.63-2.81-11.26v-60.04h24.39v-22.28h-24.39V13.84Z"/>
        <path class="cls-1" d="m496.26,81.38c0-22.98-17.75-34.48-53.24-34.48-15.64,0-28.3,2.9-37.99,8.68-11.73,6.88-18.06,17.51-19,31.9h33.3c1.09-12.2,8.44-18.29,22.05-18.29,6.88,0,11.88.94,15.01,2.81,4.38,2.5,6.57,7.04,6.57,13.6,0,5.94-3.99,9.93-11.96,11.96-.31.16-9.46,1.49-27.44,3.99-12.66,1.88-22.13,4.92-28.38,9.15-8.6,6.1-12.9,15.32-12.9,27.67s3.99,21.03,11.96,27.44c7.35,5.94,17.12,8.91,29.32,8.91,17.67,0,31.27-5,40.81-15.01.15,3.44.94,7.35,2.35,11.73h33.77c-2.81-4.53-4.22-13.52-4.22-26.97v-63.09Zm-33.3,43.15c0,18.61-8.99,27.91-26.97,27.91-13.6,0-20.4-5.16-20.4-15.48,0-7.04,3.28-12.04,9.85-15.01,3.28-1.41,10-2.89,20.17-4.46,8.91-1.25,14.69-3.05,17.36-5.39v12.43Z"/>
        <path class="cls-1" d="m635.57,84.19c-6.41-4.22-16.18-7.97-29.32-11.26-22.52-5.78-36.12-9.77-40.81-11.96-6.1-2.81-9.15-7.27-9.15-13.37,0-6.41,2.73-11.33,8.21-14.78,4.69-2.81,10.4-4.22,17.12-4.22,21.11,0,32.13,8.44,33.07,25.33h35.65c0-18.14-6.8-31.97-20.4-41.51-11.88-8.29-27.44-12.43-46.67-12.43-16.57,0-30.8,4.14-42.68,12.43-13.29,9.38-19.93,22.13-19.93,38.23,0,17.82,8.6,30.88,25.8,39.17,2.35,1.25,18.37,6.1,48.08,14.54,17.2,4.85,25.8,12.04,25.8,21.58,0,7.66-3.83,13.29-11.49,16.89-5.63,2.66-12.66,3.99-21.11,3.99-10.79,0-19.39-2.35-25.8-7.04-7.51-5.47-11.26-13.45-11.26-23.92h-35.65c-.16,19.39,7.04,34.48,21.58,45.26,12.98,9.54,29.55,14.31,49.72,14.31,22.05,0,39.32-5.08,51.83-15.24,11.88-9.69,17.82-22.52,17.82-38.46s-6.8-28.77-20.4-37.53Z"/>
        <path class="cls-1" d="m742.51,46.91c-16.42,0-28.46,6.26-36.12,18.76h-.47v-15.48h-31.66v163.94h33.3v-57.69h.47c8.13,12.2,20.25,18.29,36.35,18.29s30.17-6.41,39.87-19.23c8.91-11.57,13.37-26.03,13.37-43.39,0-18.61-4.46-33.77-13.37-45.5-9.85-13.13-23.77-19.7-41.75-19.7Zm-7.04,102.72c-10.01,0-17.51-3.99-22.51-11.96-4.38-6.72-6.57-15.56-6.57-26.5s2.11-20.09,6.33-26.97c4.85-8.13,12.35-12.19,22.52-12.19s17.36,4.14,22.52,12.43c4.38,6.88,6.57,15.79,6.57,26.73,0,25.64-9.62,38.46-28.85,38.46Z"/>
        <path class="cls-1" d="m926.38,81.38c0-22.98-17.75-34.48-53.24-34.48-15.64,0-28.3,2.9-37.99,8.68-11.73,6.88-18.06,17.51-19,31.9h33.3c1.09-12.2,8.44-18.29,22.04-18.29,6.88,0,11.88.94,15.01,2.81,4.38,2.5,6.57,7.04,6.57,13.6,0,5.94-3.99,9.93-11.96,11.96-.32.16-9.46,1.49-27.44,3.99-12.67,1.88-22.13,4.92-28.38,9.15-8.6,6.1-12.9,15.32-12.9,27.67s3.99,21.03,11.96,27.44c7.35,5.94,17.12,8.91,29.32,8.91,17.67,0,31.27-5,40.81-15.01.15,3.44.94,7.35,2.35,11.73h33.77c-2.81-4.53-4.22-13.52-4.22-26.97v-63.09Zm-33.3,43.15c0,18.61-8.99,27.91-26.97,27.91-13.6,0-20.4-5.16-20.4-15.48,0-7.04,3.28-12.04,9.85-15.01,3.28-1.41,10.01-2.89,20.17-4.46,8.91-1.25,14.7-3.05,17.36-5.39v12.43Z"/>
        <path class="cls-1" d="m1009.4,149.63c-9.54,0-16.73-4.22-21.58-12.66-4.07-6.88-6.1-15.4-6.1-25.56s2.03-19.31,6.1-26.5c5.16-8.6,12.59-12.9,22.28-12.9,14.23,0,22.43,6.96,24.63,20.87h32.6c-.94-14.7-7.12-26.27-18.53-34.71-10.32-7.51-23.14-11.26-38.46-11.26-19.23,0-34.48,6.26-45.73,18.76-10.79,11.88-16.18,27.52-16.18,46.91,0,18.29,5.67,33.23,17,44.79,11.33,11.57,26.07,17.36,44.21,17.36,16.1,0,29.35-4.3,39.75-12.9,10.4-8.6,16.61-20.87,18.65-36.82h-32.13c-2.35,16.42-11.18,24.62-26.5,24.62Z"/>
        <path class="cls-1" d="m1142.85,46.91c-18.29,0-33.19,6.06-44.68,18.18-11.49,12.12-17.24,27.4-17.24,45.85s5.59,34.28,16.77,46.09c11.18,11.81,26.23,17.71,45.15,17.71,28.92,0,47.84-13.6,56.76-40.81h-29.32c-1.1,4.07-4.07,7.59-8.91,10.55-5.16,3.44-10.95,5.16-17.36,5.16-18.92,0-28.85-10.24-29.79-30.72h87.48c1.25-19.85-3.13-36.51-13.13-49.95-10.79-14.7-26.03-22.05-45.73-22.05Zm-28.61,50.89c.31-6.25,2.35-11.73,6.1-16.42,5-6.25,12.2-9.38,21.58-9.38,14.54,0,23.37,8.6,26.5,25.8h-54.18Z"/>
        <path class="cls-1" d="m50.98,227.23L0,340.52h21.69l11.22-26.22h56.67l11.26,26.22h22.01l-51.15-113.3h-20.72Zm-11.01,70.57l21.22-49.58,21.3,49.58h-42.51Z"/>
        <path class="cls-1" d="m216.8,255.23c3.61-3.56,7.88-6.31,12.79-8.25,4.91-1.94,10.33-2.91,16.27-2.91s11.44,1.11,16.51,3.32c5.07,2.21,9.66,5.53,13.76,9.95l13.6-12.79c-5.29-6.26-11.76-10.98-19.42-14.16-7.66-3.18-16.13-4.77-25.41-4.77-8.74,0-16.78,1.43-24.12,4.29-7.34,2.86-13.76,6.91-19.26,12.14-5.5,5.24-9.77,11.41-12.79,18.53-3.02,7.12-4.53,14.89-4.53,23.31s1.51,16.19,4.53,23.31c3.02,7.12,7.26,13.3,12.71,18.53,5.45,5.24,11.87,9.28,19.26,12.14,7.39,2.86,15.4,4.29,24.04,4.29,9.39,0,17.91-1.62,25.57-4.86,7.66-3.24,14.13-7.93,19.42-14.08l-13.6-12.95c-4.1,4.53-8.69,7.91-13.76,10.12-5.07,2.21-10.58,3.32-16.51,3.32s-11.36-.97-16.27-2.91c-4.91-1.94-9.17-4.69-12.79-8.25-3.62-3.56-6.42-7.77-8.42-12.63-2-4.86-3-10.2-3-16.02s1-11.17,3-16.02c1.99-4.86,4.8-9.06,8.42-12.63Z"/>
        <path class="cls-1" d="m399.13,227.23l-50.98,113.3h21.69l11.22-26.22h56.67l11.26,26.22h22.01l-51.15-113.3h-20.72Zm-11.01,70.57l21.22-49.58,21.3,49.58h-42.51Z"/>
        <path class="cls-1" d="m623.94,234.35c-9.28-4.75-20.07-7.12-32.37-7.12h-49.53v113.3h49.53c12.3,0,23.09-2.37,32.37-7.12,9.28-4.75,16.51-11.36,21.69-19.83,5.18-8.47,7.77-18.37,7.77-29.7s-2.59-21.36-7.77-29.78c-5.18-8.42-12.41-15-21.69-19.75Zm3.16,69.92c-3.4,5.83-8.2,10.36-14.4,13.6-6.21,3.24-13.57,4.85-22.09,4.85h-27.52v-77.69h27.52c8.52,0,15.89,1.62,22.09,4.85,6.2,3.24,11.01,7.74,14.4,13.51,3.4,5.77,5.1,12.6,5.1,20.48s-1.7,14.57-5.1,20.39Z"/>
        <polygon class="cls-1" points="753.42 291.64 808.13 291.64 808.13 274.33 753.42 274.33 753.42 244.87 815.09 244.87 815.09 227.23 732.38 227.23 732.38 340.52 817.36 340.52 817.36 322.88 753.42 322.88 753.42 291.64"/>
        <polygon class="cls-1" points="1003.98 227.23 959.75 302.3 914.79 227.23 897.47 227.23 897.47 340.52 917.55 340.52 917.55 266.44 954.77 327.58 964.16 327.58 1001.4 265.46 1001.55 340.52 1021.46 340.52 1021.29 227.23 1003.98 227.23"/>
        <polygon class="cls-1" points="1201.92 227.23 1181.2 227.23 1147.72 282.34 1114.52 227.23 1092.02 227.23 1136.53 300.87 1136.53 340.52 1157.57 340.52 1157.57 300.6 1201.92 227.23"/>
      </g>
      <polygon class="cls-2" points="91.12 87.71 57.11 62.55 57.11 112.88 91.12 87.71"/>
    </g>
  </g>
</svg>